#!OML:ASF C:\ViconDB\ViconDB\414\Spring2016\041811\Spring2016.ASF
:FULLY-SPECIFIED
:DEGREES
232
root 7.5722 20.5224 -27.4732 -174.158 1.19724 180.269
lowerback 19.5811 1.74265 -1.08798
upperback 3.53145 2.71629 0.702024
thorax -7.20536 1.59163 0.654948
lowerneck -12.1392 -6.23585 -16.0089
upperneck 8.94089 -8.36963 18.86
head 6.23092 -3.59039 8.00043
rclavicle -1.94809e-014 9.14409e-015
rhumerus -30.2124 10.3302 -77.3528
rradius 92.522
rwrist 0.357786
rhand -36.0692 -18.0739
rfingers 7.12502
rthumb -9.17661 -47.8542
lclavicle -1.94809e-014 9.14409e-015
lhumerus -30.125 -10.8737 63.4443
lradius 83.7469
lwrist -0.64653
lhand -36.0928 14.1026
lfingers 7.12502
lthumb -9.19939 43.882
rfemur -22.6135 -20.1837 22.8266
rtibia 22.0895
rfoot -23.5038 3.70446
rtoes -8.35715
lfemur -23.5849 4.02 -10.4442
ltibia 22.8357
lfoot 1.95242 8.51316
ltoes -9.04849
233
root 7.57647 20.4087 -27.7134 -174.27 1.00949 180.316
lowerback 20.6501 1.60018 -0.863571
upperback 3.70258 2.62532 0.642292
thorax -7.5757 1.56544 0.450282
lowerneck -12.0787 -6.23732 -16.1002
upperneck 8.55372 -8.35605 19.1342
head 6.11857 -3.58252 8.1083
rclavicle -1.69961e-014 -2.26615e-014
rhumerus -31.9308 9.33455 -78.4125
rradius 89.8104
rwrist 1.56387
rhand -36.7652 -18.1686
rfingers 7.12502
rthumb -9.84811 -47.9183
lclavicle -1.69961e-014 -2.26615e-014
lhumerus -32.4243 -11.6021 65.1266
lradius 81.3322
lwrist -2.09023
lhand -35.6442 13.545
lfingers 7.12502
lthumb -8.76647 43.343
rfemur -23.5457 -19.5681 22.9056
rtibia 21.7492
rfoot -23.5683 3.97066
rtoes -7.56067
lfemur -24.4109 3.78223 -10.1991
ltibia 22.083
lfoot 2.55613 8.74077
ltoes -8.8752
234
root 7.57878 20.2629 -27.9502 -174.362 0.935197 180.375
lowerback 21.7523 1.47502 -0.710854
upperback 3.86248 2.5473 0.582424
thorax -7.97555 1.54732 0.282428
lowerneck -12.1812 -6.21331 -15.945
upperneck 8.27971 -8.29186 19.1149
head 6.03372 -3.54563 8.07483
rclavicle -1.98785e-016 -1.11319e-014
rhumerus -33.5303 8.35499 -79.343
rradius 87.1778
rwrist 2.66798
rhand -36.8871 -17.8005
rfingers 7.12502
rthumb -9.96573 -47.5446
lclavicle -1.98785e-016 -1.11319e-014
lhumerus -34.6911 -12.1609 66.7974
lradius 79.0367
lwrist -3.12792
lhand -35.6548 13.3641
lfingers 7.12502
lthumb -8.77667 43.1616
rfemur -24.556 -18.6558 22.8622
rtibia 21.7965
rfoot -23.5553 4.03179
rtoes -7.28512
lfemur -25.376 3.83551 -10.0135
ltibia 21.6749
lfoot 3.03034 8.50329
ltoes -8.6047
235
root 7.58112 20.0957 -28.174 -174.206 0.901525 180.559
lowerback 22.5864 1.31912 -0.634288
upperback 3.98637 2.41158 0.627971
thorax -8.27695 1.49962 0.299847
lowerneck -12.3424 -6.12691 -15.8483
upperneck 7.98305 -8.11763 19.0922
head 5.93407 -3.45484 8.06285
rclavicle 1.53064e-014 9.93923e-016
rhumerus -34.9989 7.45245 -80.1659
rradius 84.6633
rwrist 4.05528
rhand -36.4165 -18.1787
rfingers 7.12502
rthumb -9.5117 -47.944
lclavicle 1.53064e-014 9.93923e-016
lhumerus -36.9647 -12.4145 68.5179
lradius 76.7396
lwrist -3.86174
lhand -35.5033 13.4378
lfingers 7.12502
lthumb -8.63047 43.2414
rfemur -26.1762 -18.0048 23.1013
rtibia 22.4732
rfoot -24.046 3.86965
rtoes -7.01544
lfemur -26.826 4.10933 -9.75306
ltibia 21.7167
lfoot 3.4445 8.43278
ltoes -9.54767
236
root 7.58442 19.8918 -28.4026 -174.106 0.96617 180.636
lowerback 23.51 1.25384 -0.556092
upperback 4.07493 2.37986 0.517952
thorax -8.65619 1.49829 0.113846
lowerneck -12.4895 -6.14453 -15.6438
upperneck 7.69713 -8.1365 19.1611
head 5.87216 -3.45474 8.04099
rclavicle 2.38542e-015 -6.36111e-015
rhumerus -36.5008 6.07507 -81.0258
rradius 82.2182
rwrist 5.0165
rhand -36.0805 -18.2055
rfingers 7.12502
rthumb -9.18743 -47.9853
lclavicle 2.38542e-015 -6.36111e-015
lhumerus -39.0464 -12.7479 70.0874
lradius 74.3718
lwrist -4.63972
lhand -35.3843 12.8846
lfingers 7.12502
lthumb -8.51565 42.6929
rfemur -28.0463 -17.6789 23.3825
rtibia 23.828
rfoot -24.4383 3.48921
rtoes -7.10139
lfemur -28.4127 4.62503 -9.65373
ltibia 22.3497
lfoot 3.50889 8.55276
ltoes -10.0038
237
root 7.59215 19.658 -28.6306 -174.053 0.954138 180.867
lowerback 24.0288 1.18748 -0.550566
upperback 4.45141 2.39977 0.696308
thorax -8.51723 1.54607 0.287847
lowerneck -12.7914 -6.28033 -15.8067
upperneck 7.26572 -8.16968 19.1141
head 5.80492 -3.46403 8.03737
rclavicle -6.4605e-015 -6.95746e-015
rhumerus -37.4761 4.83503 -81.3426
rradius 79.7327
rwrist 5.42655
rhand -35.9956 -18.1494
rfingers 7.12502
rthumb -9.10555 -47.9328
lclavicle -6.4605e-015 -6.95746e-015
lhumerus -40.6707 -12.5034 71.9877
lradius 72.0062
lwrist -4.44498
lhand -35.2569 12.5579
lfingers 7.12502
lthumb -8.39271 42.3712
rfemur -30.0956 -17.5804 23.8794
rtibia 25.8223
rfoot -24.7687 3.05297
rtoes -6.99685
lfemur -30.2424 5.6783 -9.5926
ltibia 23.5658
lfoot 3.67485 8.16433
ltoes -11.0516
238
root 7.5969 19.3931 -28.8668 -174.088 0.990175 181.032
lowerback 25.4304 1.09804 -0.297799
upperback 4.27855 2.35802 0.575975
thorax -9.42387 1.52074 -0.0267308
lowerneck -12.8261 -6.28879 -15.7628
upperneck 7.22865 -8.2045 19.2307
head 5.81095 -3.47612 8.0651
rclavicle 7.55382e-015 7.55382e-015
rhumerus -39.217 3.52809 -82.1141
rradius 77.2364
rwrist 5.66367
rhand -36.2978 -18.2614
rfingers 7.12502
rthumb -9.39712 -48.0319
lclavicle 7.55382e-015 7.55382e-015
lhumerus -43.0662 -12.8307 73.657
lradius 69.796
lwrist -4.34171
lhand -35.4485 12.5394
lfingers 7.12502
lthumb -8.57758 42.3452
rfemur -32.188 -17.5827 24.2756
rtibia 28.3044
rfoot -25.4372 2.48619
rtoes -6.57305
lfemur -32.1028 6.95071 -9.72298
ltibia 25.234
lfoot 3.86872 6.9161
ltoes -11.989
